<svg xmlns="http://www.w3.org/2000/svg" xmlns:xlink="http://www.w3.org/1999/xlink" width="500" zoomAndPan="magnify" viewBox="0 0 375 374.999991" height="500" preserveAspectRatio="xMidYMid meet" version="1.0"><defs><filter x="0%" y="0%" width="100%" height="100%" id="7274039c0f"><feColorMatrix values="0 0 0 0 1 0 0 0 0 1 0 0 0 0 1 0 0 0 1 0" color-interpolation-filters="sRGB"/></filter><g/><mask id="ffda3f4514"><g filter="url(#7274039c0f)"><rect x="-37.5" width="450" fill="#000000" y="-37.499999" height="449.999989" fill-opacity="0.8"/></g></mask><clipPath id="91691e5691"><path d="M 0.503906 0.0664062 L 62.527344 0.0664062 L 62.527344 62.214844 L 0.503906 62.214844 Z M 0.503906 0.0664062 " clip-rule="nonzero"/></clipPath><clipPath id="934b9fc5cc"><path d="M 62.527344 0.0898438 L 62.527344 62.214844 L 0.503906 62.214844 Z M 62.527344 0.0898438 " clip-rule="nonzero"/></clipPath><clipPath id="bf813071f1"><rect x="0" width="63" y="0" height="63"/></clipPath><mask id="be43bd46fd"><g filter="url(#7274039c0f)"><rect x="-37.5" width="450" fill="#000000" y="-37.499999" height="449.999989" fill-opacity="0.71"/></g></mask><clipPath id="e8c5d248cf"><path d="M 0.859375 0.371094 L 62.882812 0.371094 L 62.882812 62.519531 L 0.859375 62.519531 Z M 0.859375 0.371094 " clip-rule="nonzero"/></clipPath><clipPath id="dfb0176320"><path d="M 62.882812 0.394531 L 62.882812 62.519531 L 0.859375 62.519531 Z M 62.882812 0.394531 " clip-rule="nonzero"/></clipPath><clipPath id="527493c70a"><rect x="0" width="64" y="0" height="63"/></clipPath><mask id="6eb5b1f248"><g filter="url(#7274039c0f)"><rect x="-37.5" width="450" fill="#000000" y="-37.499999" height="449.999989" fill-opacity="0.77"/></g></mask><clipPath id="4c03e1b3c4"><path d="M 0.585938 0.195312 L 62.609375 0.195312 L 62.609375 62.34375 L 0.585938 62.34375 Z M 0.585938 0.195312 " clip-rule="nonzero"/></clipPath><clipPath id="8b53f48aa0"><path d="M 62.609375 0.21875 L 62.609375 62.34375 L 0.585938 62.34375 Z M 62.609375 0.21875 " clip-rule="nonzero"/></clipPath><clipPath id="adaffc9b18"><rect x="0" width="63" y="0" height="63"/></clipPath><mask id="e716a1590b"><g filter="url(#7274039c0f)"><rect x="-37.5" width="450" fill="#000000" y="-37.499999" height="449.999989" fill-opacity="0.8"/></g></mask><clipPath id="a15605cce2"><path d="M 0.308594 1.019531 L 62.335938 1.019531 L 62.335938 63.167969 L 0.308594 63.167969 Z M 0.308594 1.019531 " clip-rule="nonzero"/></clipPath><clipPath id="0d3d43fc14"><path d="M 62.335938 1.042969 L 62.335938 63.167969 L 0.308594 63.167969 Z M 62.335938 1.042969 " clip-rule="nonzero"/></clipPath><clipPath id="0d7565e2bc"><rect x="0" width="63" y="0" height="64"/></clipPath></defs><rect x="-37.5" width="450" fill="#ffffff" y="-37.499999" height="449.999989" fill-opacity="1"/><rect x="-37.5" width="450" fill="#ffffff" y="-37.499999" height="449.999989" fill-opacity="1"/><g mask="url(#ffda3f4514)"><g transform="matrix(1, 0, 0, 1, 37, 143)"><g clip-path="url(#bf813071f1)"><g clip-path="url(#91691e5691)"><g clip-path="url(#934b9fc5cc)"><path fill="#00aeef" d="M 0.503906 62.214844 L 0.503906 0.0664062 L 62.527344 0.0664062 L 62.527344 62.214844 Z M 0.503906 62.214844 " fill-opacity="1" fill-rule="nonzero"/></g></g></g></g></g><g mask="url(#be43bd46fd)"><g transform="matrix(1, 0, 0, 1, 49, 155)"><g clip-path="url(#527493c70a)"><g clip-path="url(#e8c5d248cf)"><g clip-path="url(#dfb0176320)"><path fill="#000000" d="M 0.859375 62.519531 L 0.859375 0.371094 L 62.882812 0.371094 L 62.882812 62.519531 Z M 0.859375 62.519531 " fill-opacity="1" fill-rule="nonzero"/></g></g></g></g></g><g mask="url(#6eb5b1f248)"><g transform="matrix(1, 0, 0, 1, 62, 168)"><g clip-path="url(#adaffc9b18)"><g clip-path="url(#4c03e1b3c4)"><g clip-path="url(#8b53f48aa0)"><path fill="#fff202" d="M 0.585938 62.34375 L 0.585938 0.195312 L 62.609375 0.195312 L 62.609375 62.34375 Z M 0.585938 62.34375 " fill-opacity="1" fill-rule="nonzero"/></g></g></g></g></g><g mask="url(#e716a1590b)"><g transform="matrix(1, 0, 0, 1, 75, 180)"><g clip-path="url(#0d7565e2bc)"><g clip-path="url(#a15605cce2)"><g clip-path="url(#0d3d43fc14)"><path fill="#ec0c8c" d="M 0.308594 63.167969 L 0.308594 1.019531 L 62.335938 1.019531 L 62.335938 63.167969 Z M 0.308594 63.167969 " fill-opacity="1" fill-rule="nonzero"/></g></g></g></g></g><g fill="#000000" fill-opacity="1"><g transform="translate(159.555786, 207.398156)"><g><path d="M 25.671875 -53.625 C 33.597656 -53.625 40.566406 -51.65625 46.578125 -47.71875 L 41.5 -37.1875 C 38.726562 -38.800781 35.75 -40.125 32.5625 -41.15625 C 29.382812 -42.195312 26.707031 -42.71875 24.53125 -42.71875 C 20.644531 -42.71875 18.703125 -41.429688 18.703125 -38.859375 C 18.703125 -37.191406 19.660156 -35.851562 21.578125 -34.84375 C 23.503906 -33.832031 25.84375 -32.957031 28.59375 -32.21875 C 31.34375 -31.488281 34.09375 -30.601562 36.84375 -29.5625 C 39.59375 -28.53125 41.925781 -26.851562 43.84375 -24.53125 C 45.769531 -22.207031 46.734375 -19.28125 46.734375 -15.75 C 46.734375 -10.65625 44.738281 -6.679688 40.75 -3.828125 C 36.757812 -0.972656 31.679688 0.453125 25.515625 0.453125 C 21.128906 0.453125 16.789062 -0.300781 12.5 -1.8125 C 8.207031 -3.332031 4.46875 -5.40625 1.28125 -8.03125 L 6.515625 -18.40625 C 9.191406 -16.082031 12.347656 -14.175781 15.984375 -12.6875 C 19.617188 -11.195312 22.847656 -10.453125 25.671875 -10.453125 C 27.847656 -10.453125 29.539062 -10.84375 30.75 -11.625 C 31.957031 -12.40625 32.5625 -13.554688 32.5625 -15.078125 C 32.5625 -16.535156 31.867188 -17.753906 30.484375 -18.734375 C 29.097656 -19.722656 27.367188 -20.457031 25.296875 -20.9375 C 23.222656 -21.414062 20.972656 -22.054688 18.546875 -22.859375 C 16.128906 -23.671875 13.882812 -24.554688 11.8125 -25.515625 C 9.738281 -26.484375 8.007812 -28.015625 6.625 -30.109375 C 5.238281 -32.203125 4.546875 -34.710938 4.546875 -37.640625 C 4.546875 -42.484375 6.472656 -46.359375 10.328125 -49.265625 C 14.191406 -52.171875 19.304688 -53.625 25.671875 -53.625 Z M 25.671875 -53.625 "/></g></g></g><g fill="#000000" fill-opacity="1"><g transform="translate(208.3299, 207.398156)"><g><path d="M 5.296875 -53.015625 L 28.09375 -53.015625 C 36.425781 -53.015625 43.203125 -50.566406 48.421875 -45.671875 C 53.648438 -40.773438 56.265625 -34.382812 56.265625 -26.5 C 56.265625 -18.675781 53.613281 -12.300781 48.3125 -7.375 C 43.007812 -2.457031 36.09375 0 27.5625 0 L 5.296875 0 Z M 18.78125 -42.265625 L 18.78125 -10.75 L 28.40625 -10.75 C 32.539062 -10.75 35.929688 -12.203125 38.578125 -15.109375 C 41.234375 -18.015625 42.5625 -21.789062 42.5625 -26.4375 C 42.5625 -31.082031 41.171875 -34.878906 38.390625 -37.828125 C 35.617188 -40.785156 32.085938 -42.265625 27.796875 -42.265625 Z M 18.78125 -42.265625 "/></g></g></g><g fill="#000000" fill-opacity="1"><g transform="translate(266.419569, 207.398156)"><g><path d="M 25.671875 -53.625 C 33.597656 -53.625 40.566406 -51.65625 46.578125 -47.71875 L 41.5 -37.1875 C 38.726562 -38.800781 35.75 -40.125 32.5625 -41.15625 C 29.382812 -42.195312 26.707031 -42.71875 24.53125 -42.71875 C 20.644531 -42.71875 18.703125 -41.429688 18.703125 -38.859375 C 18.703125 -37.191406 19.660156 -35.851562 21.578125 -34.84375 C 23.503906 -33.832031 25.84375 -32.957031 28.59375 -32.21875 C 31.34375 -31.488281 34.09375 -30.601562 36.84375 -29.5625 C 39.59375 -28.53125 41.925781 -26.851562 43.84375 -24.53125 C 45.769531 -22.207031 46.734375 -19.28125 46.734375 -15.75 C 46.734375 -10.65625 44.738281 -6.679688 40.75 -3.828125 C 36.757812 -0.972656 31.679688 0.453125 25.515625 0.453125 C 21.128906 0.453125 16.789062 -0.300781 12.5 -1.8125 C 8.207031 -3.332031 4.46875 -5.40625 1.28125 -8.03125 L 6.515625 -18.40625 C 9.191406 -16.082031 12.347656 -14.175781 15.984375 -12.6875 C 19.617188 -11.195312 22.847656 -10.453125 25.671875 -10.453125 C 27.847656 -10.453125 29.539062 -10.84375 30.75 -11.625 C 31.957031 -12.40625 32.5625 -13.554688 32.5625 -15.078125 C 32.5625 -16.535156 31.867188 -17.753906 30.484375 -18.734375 C 29.097656 -19.722656 27.367188 -20.457031 25.296875 -20.9375 C 23.222656 -21.414062 20.972656 -22.054688 18.546875 -22.859375 C 16.128906 -23.671875 13.882812 -24.554688 11.8125 -25.515625 C 9.738281 -26.484375 8.007812 -28.015625 6.625 -30.109375 C 5.238281 -32.203125 4.546875 -34.710938 4.546875 -37.640625 C 4.546875 -42.484375 6.472656 -46.359375 10.328125 -49.265625 C 14.191406 -52.171875 19.304688 -53.625 25.671875 -53.625 Z M 25.671875 -53.625 "/></g></g></g><g fill="#ec0c8c" fill-opacity="1"><g transform="translate(159.555786, 241.22619)"><g><path d="M 2.640625 0 L 2.640625 -21.96875 L 6.875 -21.96875 L 14.6875 -10.578125 L 22.46875 -21.96875 L 26.6875 -21.96875 L 26.6875 0 L 21.71875 0 L 21.71875 -13.21875 L 16.390625 -5.4375 L 12.9375 -5.4375 L 7.59375 -13.25 L 7.59375 0 Z M 2.640625 0 "/></g></g></g><g fill="#000000" fill-opacity="1"><g transform="translate(188.876097, 241.22619)"><g><path d="M 2.640625 0 L 2.640625 -21.96875 L 17.078125 -21.96875 L 17.078125 -17.765625 L 7.59375 -17.765625 L 7.59375 -13.21875 L 16.234375 -13.21875 L 16.234375 -9.046875 L 7.59375 -9.046875 L 7.59375 -4.234375 L 17.421875 -4.234375 L 17.421875 0 Z M 2.640625 0 "/></g></g></g><g fill="#00aeef" fill-opacity="1"><g transform="translate(207.895627, 241.22619)"><g><path d="M 0.28125 0 L 9.015625 -21.96875 L 13.90625 -21.96875 L 22.625 0 L 17.296875 0 L 15.828125 -3.796875 L 7.09375 -3.796875 L 5.625 0 Z M 8.375 -7.71875 L 14.5625 -7.71875 L 11.453125 -15.765625 Z M 8.375 -7.71875 "/></g></g></g></svg>